<svg xmlns="http://www.w3.org/2000/svg" viewBox="0 0 512 511" width="512pt" height="512pt"><path fill="#ade5ff" d="m 305.352 457.477 h -37.0391 c -24.8555 0 -45.0039 20.1484 -45.0039 45.0039 h 127.047 c 0 -24.8555 -20.1484 -45.0039 -45.0039 -45.0039 Z m 0 0" /><path fill="#4dbaf6" d="m 250 384.48 h 49.832 v 72.9961 h -49.832 Z m 0 0" /><path fill="#fff" d="m 431.594 10.5 h 50.4063 c 11.0469 0 20 8.92969 20 19.9414 v 333.027 c 0 11.0117 -8.95313 19.9414 -20 19.9414 h -452 c -11.0469 0 -20 -8.92969 -20 -19.9414 v -333.027 c 0 -11.0117 8.95313 -19.9414 20 -19.9414 Z m 0 0" /><path fill="#ade5ff" d="m 502 363.957 v -52.4375 h -375.668 v 52.4375 c 0 10.7422 8.71094 19.4531 19.457 19.4531 h 336.754 c 10.7461 0 19.457 -8.71094 19.457 -19.4531 Z m 0 0" /><path fill="#a0e557" d="m 227.965 79.6289 c -12.4336 0.699219 -28.2461 4.61719 -41.2734 17.6445 c -15.8984 15.8984 -18.332 36.0391 -17.8828 49.1055 c 12.5078 -0.761718 28.4102 -4.73828 41.4531 -17.7813 c 15.9141 -15.9141 18.2383 -35.9805 17.7031 -48.9688 Z m 0 0" /><path fill="#a0e557" d="m 91.9375 65.0859 c -0.78125 12.8984 1.06641 33.9492 17.625 50.5117 c 11.3359 11.3359 24.832 15.8242 36.3828 17.3047 c 0.695313 -12.9805 -1.28125 -34.0977 -17.8086 -50.6289 c -11.3125 -11.3086 -24.7227 -15.7539 -36.1992 -17.1875 Z m 0 0" /><path fill="#ffc66c" d="m 364.504 64.9688 c -18.4844 10.2227 -31.0039 29.9141 -31.0039 52.5313 c 0 30.6328 22.9648 55.8906 52.6133 59.5313 c 18.4844 -10.2227 31.0039 -29.9141 31.0039 -52.5313 c 0 -30.6328 -22.9609 -55.8867 -52.6133 -59.5313 Z m 0 0" /><path fill="#fff" d="m 357.117 64.5 v 60 h 26.75 v -53.7031 c -8.05469 -4.02344 -17.1328 -6.29688 -26.75 -6.29688 Z m 0 0" /><path fill="#ff5d5d" d="m 383.867 70.7969 v 53.7031 h 33.25 c 0 -23.5234 -13.543 -43.8711 -33.25 -53.7031 Z m 0 0" /><path d="m 256 357.449 c 2.62891 0 5.21094 -1.07031 7.07031 -2.92969 c 1.85938 -1.85938 2.92969 -4.44141 2.92969 -7.07031 c 0 -2.62891 -1.07031 -5.21094 -2.92969 -7.07031 c -1.85937 -1.85938 -4.44141 -2.92969 -7.07031 -2.92969 s -5.21094 1.07031 -7.07031 2.92969 c -1.85938 1.85938 -2.92969 4.44141 -2.92969 7.07031 c 0 2.62891 1.07031 5.21094 2.92969 7.07031 c 1.85937 1.85938 4.44141 2.92969 7.07031 2.92969 Z m 0 0" /><path d="m 502 139.039 c -2.62891 0 -5.21094 1.07031 -7.07031 2.92969 c -1.85938 1.85938 -2.92969 4.44141 -2.92969 7.07031 c 0 2.63281 1.07031 5.21094 2.92969 7.07031 c 1.85937 1.85938 4.44141 2.92969 7.07031 2.92969 s 5.21094 -1.07031 7.07031 -2.92969 c 1.85938 -1.85938 2.92969 -4.4375 2.92969 -7.07031 c 0 -2.62891 -1.07031 -5.21094 -2.92969 -7.07031 c -1.85937 -1.85938 -4.44141 -2.92969 -7.07031 -2.92969 Z m 0 0" /><path d="m 482 0.5 h -452 c -16.543 0 -30 13.4336 -30 29.9414 v 333.027 c 0 16.5078 13.457 29.9414 30 29.9414 h 172.168 v 54.2656 c -28.2422 2.28516 -50.5273 25.9844 -50.5273 54.8008 c 0 5.52344 4.47656 10 10 10 h 188.715 c 5.52344 0 10 -4.47656 10 -10 c 0 -28.8164 -22.2852 -52.5156 -50.5234 -54.8008 v -54.2656 h 172.168 c 16.543 0 30 -13.4336 30 -29.9414 v -172.633 c 0 -5.51953 -4.47656 -10 -10 -10 s -10 4.48047 -10 10 v 110.684 h -472 v -271.078 c 0 -5.48047 4.48438 -9.94141 10 -9.94141 h 452 c 5.51563 0 10 4.46094 10 9.94141 v 67.0234 c 0 5.52344 4.47656 10 10 10 s 10 -4.47656 10 -10 v -67.0234 c 0 -16.5078 -13.457 -29.9414 -30 -29.9414 Z m -143.102 491.98 h -165.801 c 4.3125 -14.4414 17.7188 -25.0039 33.5469 -25.0039 h 98.707 c 15.8281 0 29.2344 10.5586 33.5469 25.0039 Z m -116.73 -45.0039 v -52.9961 h 67.6641 v 52.9961 Z m 269.832 -125.957 v 41.9492 c 0 5.48047 -4.48438 9.94141 -10 9.94141 h -452 c -5.51563 0 -10 -4.46094 -10 -9.94141 v -41.9492 Z m 0 0" /><path d="m 234.211 225.211 c 5.52344 0 10 -4.48047 10 -10 v -28.4297 c 0 -5.51953 -4.47656 -10 -10 -10 h -28.4297 c -5.52344 0 -10 4.48047 -10 10 c 0 5.52344 4.47656 10 10 10 h 4.28516 l -44.9883 44.9883 l -36.9258 -36.9219 c -3.90625 -3.90625 -10.2383 -3.90625 -14.1406 0 l -57.082 57.082 c -3.90625 3.90234 -3.90625 10.2344 0 14.1406 c 1.95312 1.95313 4.51172 2.92969 7.07031 2.92969 s 5.11719 -0.976562 7.07031 -2.92969 l 50.0117 -50.0117 l 36.9258 36.9258 c 1.875 1.875 4.41797 2.92969 7.07031 2.92969 s 5.19531 -1.05469 7.07031 -2.92969 l 52.0625 -52.0586 v 4.28516 c 0 5.52344 4.47656 10 10 10 Z m 0 0" /><path d="m 372.332 225 c 0 -5.52344 -4.47656 -10 -10 -10 h -66.332 c -5.52344 0 -10 4.47656 -10 10 s 4.47656 10 10 10 h 66.332 c 5.52344 0 10 -4.47656 10 -10 Z m 0 0" /><path d="m 448 215 h -37 c -5.52344 0 -10 4.47656 -10 10 s 4.47656 10 10 10 h 37 c 5.52344 0 10 -4.47656 10 -10 s -4.47656 -10 -10 -10 Z m 0 0" /><path d="m 288.93 261.93 c -1.85938 1.85937 -2.92969 4.44141 -2.92969 7.07031 s 1.07031 5.21094 2.92969 7.07031 c 1.85937 1.85938 4.44141 2.92969 7.07031 2.92969 s 5.21094 -1.07031 7.07031 -2.92969 c 1.85938 -1.85937 2.92969 -4.44141 2.92969 -7.07031 s -1.07031 -5.21094 -2.92969 -7.07031 c -1.85937 -1.85938 -4.44141 -2.92969 -7.07031 -2.92969 s -5.21094 1.07031 -7.07031 2.92969 Z m 0 0" /><path d="m 339 279 h 109 c 5.52344 0 10 -4.47656 10 -10 s -4.47656 -10 -10 -10 h -109 c -5.52344 0 -10 4.47656 -10 10 s 4.47656 10 10 10 Z m 0 0" /><path d="m 357.117 194.5 c 38.6016 0 70 -31.4023 70 -70 s -31.3984 -70 -70 -70 c -38.5977 0 -70 31.4023 -70 70 s 31.4023 70 70 70 Z m 10 -118.992 c 19.5664 3.98438 35.0078 19.4297 38.9961 38.9922 h -38.9961 Z m -20 0 v 48.9922 c 0 5.52344 4.48047 10 10 10 h 48.9961 c -4.64453 22.7969 -24.8477 40 -48.9961 40 c -27.5664 0 -50 -22.4297 -50 -50 c 0 -24.1445 17.207 -44.3477 40 -48.9922 Z m 0 0" /><path d="m 146.008 174 c 5.52344 0 10 -4.47656 10 -10 v -7.8125 c 2.38672 0.210938 5.08203 0.355469 8.03125 0.355469 c 14.9453 0 36.0977 -3.67969 53.2969 -20.875 c 29.4453 -29.4492 19.0117 -70.207 18.5508 -71.9297 c -0.921875 -3.46094 -3.625 -6.16406 -7.08594 -7.08594 c -1.72266 -0.460938 -42.4844 -10.8984 -71.9336 18.5508 c -4.46484 4.46875 -8.01563 9.20313 -10.832 14.0234 c -2.8125 -4.82031 -6.36328 -9.55469 -10.832 -14.0234 c -29.4453 -29.4453 -70.207 -19.0117 -71.9297 -18.5508 c -3.46094 0.921875 -6.16406 3.625 -7.08594 7.08594 c -0.457031 1.72266 -10.8945 42.4805 18.5547 71.9297 c 17.1953 17.1953 38.3477 20.875 53.293 20.875 c 2.92578 0 5.59766 -0.144531 7.97266 -0.351563 v 7.80859 c 0 5.52344 4.47656 10 10 10 Z m 25.0039 -84.6523 c 15.7461 -15.7461 36.4844 -15.6484 46.6016 -14.4258 c 1.22266 10.1367 1.31641 30.8672 -14.4219 46.6016 c -15.7188 15.7227 -36.5391 15.7891 -46.7969 14.6406 c -0.15625 -1.42187 -0.285156 -3.05469 -0.359375 -4.84375 c 0.054688 -1.76562 0.0625 -3.63281 0 -5.59375 c 0.4375 -10.8164 3.58203 -24.9844 14.9766 -36.3789 Z m -35.3125 46.8125 c -10.25 1.15625 -31.0859 1.09375 -46.8164 -14.6367 c -15.7344 -15.7344 -15.6445 -36.4609 -14.4297 -46.5859 c 10.1172 -1.19141 30.9336 -1.26953 46.6094 14.4102 c 11.2578 11.2578 14.4883 25.1289 14.9922 35.8633 c -0.058594 1.63672 -0.070313 3.21094 -0.046876 4.71875 v 2.625 c -0.078124 1.30859 -0.183593 2.51953 -0.308593 3.60547 Z m 0 0" /></svg>